<svg id="svg2" xmlns="http://www.w3.org/2000/svg" viewBox="0 0 578.35 580.58"><defs><style>.cls-1{fill:navy;}.cls-2,.cls-3{fill:#fff;}.cls-3{stroke:#000;stroke-opacity:0;}.cls-4{fill:#001e90;}.cls-5,.cls-6{fill:#001e8f;}.cls-6{stroke:#001e8f;}.cls-7{fill:none;stroke:#001e8c;stroke-width:2.7px;}</style></defs><title>TAT</title><g id="layer4"><g id="g3892"><path id="path2998" class="cls-1" d="M576.67,287.86c0,159-128.88,287.85-287.86,287.85S1,446.84,1,287.86,129.84,0,288.81,0,576.67,128.88,576.67,287.86Z"/><path id="path3000" class="cls-2" d="M516.67,286.57c0,126.24-103,228.57-230,228.57s-230-102.33-230-228.57S159.65,58,286.67,58,516.67,160.33,516.67,286.57Z"/><path id="path3007" class="cls-3" d="M136.88,73.46l-6.07,3-10.1-14.14,25.76-15.66,2.53.51,8.08,12.12,1.51-3,4-19.19,28.79-12.63,4,1,14.65,34.85-1.51,3.54L194,68.92l-3-1.52-9.09-21.72-3-.5L171.22,80l-15.66,9.6H151L139.91,73Z"/><path id="path3777" class="cls-2" d="M252.54,27.5H244s-2.52,0-2.52-3V13.87s0-3.54,6.06-4,22.22-1.51,22.22-1.51,4,2,4,5.56.51,9.59.51,9.59h2L291.43,7.3l30.3,1.51a5.35,5.35,0,0,1,3,5.56c-.5,4-1.51,34.85-1.51,34.85l-2.53,3-19.19-1L302,23h-2L277.29,51.24H256.58a9.64,9.64,0,0,1-3-7.07c0-4.55-1-16.67-1-16.67Z"/><path id="path3779" class="cls-2" d="M363.65,34.57l5.56,1.52s4.55,3,2.53,7.07-6.57,16.16-6.57,16.16l2.53,3.54,16.66,7.07,29.3-13.13s5-1,4,3-11.62,19.69-11.62,19.69l14.65,12.63,4-2.52,17.68-29.3.5-5.55L418.71,38.61l-8.08.51-12.12,7.07-5.06-1,4.05-9.09-2-6.57-19.19-8.58s-7.57-2-8.58,0c-7.45,6.12-.56,16.25-4.05,13.63Z"/><path id="path3784" class="cls-4" d="M445.48,154.78v.51s-3,6.06-18.69,6.56-46.47,0-46.47,0l-29.29-5-6.57-14.14s-3.53-4.55,2.53-3.54,11.61,8.09,11.61,8.09a8,8,0,0,0,6.07,2.52c4,0,2.52,2,14.64,0s54.05-3.53,58.09-1a42.57,42.57,0,0,1,8.08,6.06Z"/><path id="path3786" class="cls-5" d="M286.38,328.53H73.24l-.51-10.1H79.3s5-.51,5-2.53a32.64,32.64,0,0,1,2-9.6c1-2,7.07-5.55,7.07-8.08s-.51-15.15,3-15.65S98,259.33,98,259.33s.51-3,3-3a3.17,3.17,0,0,1,3,2.53V280s.5,4,2.52,4.55.51,14.64.51,14.64,9.09,8.59,9.09,15.16,7.07,5.05,7.57,5.05,5.56-.51,5.56-.51,21.72-36.36,25.25-35.86,7.07-2.52,7.07-2.52l12.13-43.44s2-5.05,6.06-5.05,1.51-3.54,1.51-3.54l8.08-24.75,1.52-33.33s0-5.56,1-5.05,3-.51,3-1.52,3-42.42,3-42.42,2.53-9.6,9.09-9.6,9.6,10.1,9.6,10.1v42.43a2.47,2.47,0,0,0,2.52,2.52c2.53,0,1.52,36.37,1.52,36.37s6.56,23.74,6.06,26.26,6.06,6.06,6.06,11.11S242.94,275,241.93,277s5,5.56,5,5.56,16.67,36.36,21.72,35.35,18.18-1,18.18-1Z"/><path id="path3790" class="cls-5" d="M251,273l-.5.5s-6.06-9.09-6.06-15.65S250,242.16,250,242.16s6.57,8.08,6.57,15.15S251,273,251,273Z"/><path id="path3792" class="cls-6" d="M249.91,244.18l.5-23.23"/><path id="path3799" class="cls-2" d="M510.63,328l67.18,1s13.13,60.61-89.91,170.72-266.68,75.76-266.68,75.76S129.3,552.78,69.7,481.06,0,327.52,0,327.52Z"/><path id="path3014" class="cls-7" d="M63.13,345.2l4.05,13.63"/><path id="path3016" class="cls-7" d="M64.65,352.27l-52,17.67"/><path id="path3787" class="cls-7" d="M26.26,389.14,67.68,372s4.55-2,7.07,4-1,6.57-1,6.57L31.82,401.76s-3.54,2.53-7.07-4,1.51-8.58,1.51-8.58Z"/><path id="path3789" class="cls-7" d="M88.89,403.28,45,428s-3.53,3-7.57-3.54,1.51-7.57,1.51-7.57l42.93-24.75"/><path id="path3791" class="cls-7" d="M58.08,457.83l20.71-15.66s3.54-3.54,0-8.59a65.71,65.71,0,0,0-6.56-8.08"/><path id="path3793" class="cls-7" d="M78.79,434.09s4,6.56,7.07,4S98.49,429,98.49,429s4-1,0-7.58-8.59-3-8.59-3L52.53,445.71"/><path id="path3795" class="cls-7" d="M69.2,471l40.4-36.87"/><path id="path3797" class="cls-7" d="M118.19,444.7s-13.13,2.52-15.66,19.69-24.24,15.66-24.24,15.66"/><path id="path3800" class="cls-7" d="M88.89,490.15l38.39-34.85-25.76,44.45,39.9-32.33-28.28,43.44"/><path id="path3782" class="cls-6" d="M119.2,155.29l215.16.5"/><path id="path3788" class="cls-5" d="M454.57,418.43l-111.62,1s-18.19-3-29.3-11.62-19.7-19.19-21.72-26.76-3.53-13.14-2.52-19.2-2.53-2.52-3.54-6.06.51-7.57.51-7.57a9.32,9.32,0,0,0,3-4.55c.5-2.53,12.63-58.59,11.62-61.11s3-10.11-4-15.66-9.09-4.55-10.6-7.58a7.29,7.29,0,0,1,0-6.06S253.55,224,250,223.47s0-12.12,0-12.12,3.54,2,3.54,5.05S259.1,222,259.1,222s29.8,16.66,27.28,15.15-.51,1.51,3,0,5.55-3,8.08-2.53,19.19,10.61,23.23,10.61,10.61,3,10.61,3-12.63,2.53-12.63,7.07,4.55,8.59,4,12.12-2,69.2,1,71.22,3.54-1,3.54-1,2-1.52,2-.51,5.05,6.06,5.05,13.64-4,6.06-3,9.09S343,375,350.52,375s132.33.51,132.33.51h2.53s-5.56,16.67-13.64,27.78S454.57,418.43,454.57,418.43Z"/><path id="path3794" class="cls-5" d="M503.56,327.52l-174.25,1V306.81s5.56-3.54,6.06-6.57,1-15.15,1-15.15,2.53,0,2.53-1.51V261.35s2-4.54,4-4.54,4,5.55,4,5.55v22.23l1,1,1.51,15.15,1,2.52s7.07,5.56,8.08,9.6,4,3.54,4,3.54h3s6.56-5.56,11.11-5.56,13.13,5.56,13.13,5.56,1,1,4.54,0,7.08-5.56,7.08-5.56,2.52-13.13,10.6-13.13a15.48,15.48,0,0,1,12.12,5.55s2,2,2,3.54,1,7.07,1,7.07,5.56,0,8.59,4,9.6-.5,9.6-.5,6.06-14.65,19.7-14.65,17.67,12.63,17.67,12.63,8.08,3.53,15.16,3.53,6.06.51,6.06.51Z"/><path id="path3804" class="cls-7" d="M150.51,539.14l27.28-44.44s3.53-5.05-2-8.08-9.09.5-9.09.5L138.9,531.57"/><path id="path3806" class="cls-7" d="M155.56,505.3l11.12,7.08"/><path id="path3808" class="cls-7" d="M187.89,494.19l-20.2,46s-1,5.56,3,7.58,9.59-3.53,9.59-3.53l19.7-44"/><path id="path3810" class="cls-7" d="M208.09,503.79l14.14,5.55"/><path id="path3812" class="cls-7" d="M214.66,506.31l-20.21,50.51"/><path id="path3814" class="cls-7" d="M232.34,509.85l-14.65,55"/><path id="path3816" class="cls-7" d="M226.78,534.09l12.12,2.53"/><path id="path3818" class="cls-7" d="M244,513.89l-11.11,54.55"/><path id="path3820" class="cls-7" d="M255.57,519.45l-3,47s1.51,3.53,6.56,4,7.58-5.05,7.58-5.05l2-44.95s-.5-3.54-6.06-4-7.07,3-7.07,3Z"/><path id="path3824" class="cls-7" d="M281.83,571l.51-53.53h7.07s4,0,4,5.55v16.67s0,3.53-4,3.53-12.63-.5-12.63-.5"/><path id="path3826" class="cls-7" d="M295,571.47l-.5-23.74s-1-5.55-3-5.05"/><path id="path3828" class="cls-7" d="M313.65,571l-6.56-56.56"/><path id="path3830" class="cls-7" d="M318.7,517.43l13.14-2.53"/><path id="path3832" class="cls-7" d="M324.76,515.91l11.62,52.53"/><path id="path3834" class="cls-7" d="M341.43,511.37l10.1,22.72s1.52,4.55,7.07,2.53,4-8.59,4-8.59l-8.08-21.21"/><path id="path3836" class="cls-7" d="M366.69,560.36l-7.58-24.25"/><path id="path3838" class="cls-7" d="M379.82,504.8,400,543.18s4,6.57,8.59,3.54,2.52-10.61,2.52-10.61l-19.7-38.38s-2-3-7.57,0-4,7.07-4,7.07Z"/><path id="path3840" class="cls-7" d="M410.12,483.08l-6.06,3.54s-2.52.5,2,9.09,20.71,39.39,20.71,39.39"/><path id="path3842" class="cls-7" d="M420.22,501.26l-9.09,5.05"/><path id="path3844" class="cls-7" d="M427.8,472.47l10.1-9.09"/><path id="path3846" class="cls-7" d="M432.35,467.42l32.32,42.43"/><path id="path3848" class="cls-7" d="M445,456.31l35.86,39.9"/><path id="path3850" class="cls-7" d="M453.56,446.72l15.15,15.65s2.53,2-2.52,6.57A96.22,96.22,0,0,0,458.1,477"/><path id="path3852" class="cls-7" d="M468.71,465.4s2-2,4.55,1,18.18,19.7,18.18,19.7"/><path id="path3854" class="cls-7" d="M503.56,474l-37.37-34.35s-3-4,0-8.08,8.58-1,8.58-1l37.38,32.83"/><path id="path3858" class="cls-7" d="M489.42,443.18l-8.08,10.1"/><path id="path3860" class="cls-7" d="M520.73,451.26l-43.94-33.84"/><path id="path3862" class="cls-7" d="M483.86,407.32l43.44,29.29,6.06-8.08"/><path id="path3864" class="cls-7" d="M540.94,416.41l-45-25.76a5.32,5.32,0,0,1-1-6.56c2-4,8.09-2,8.09-2l43.43,23.23"/><path id="path3866" class="cls-7" d="M515.18,400.75l5.55-8.58"/><path id="path3868" class="cls-7" d="M554.07,391.66,506.59,371l49,1-47.47-15.65"/><path id="path3870" class="cls-7" d="M513.16,346.71l44.44,13.13s-2-14.64-16.16-19.7S513.16,346.71,513.16,346.71Z"/></g></g></svg>